<?xml version="1.0" encoding="utf-8"?><svg viewBox="0 0 170.667 170.667" xmlns="http://www.w3.org/2000/svg" xmlns:xlink="http://www.w3.org/1999/xlink"><style>:root>svg{display:none}:root>svg:target{display:block}</style><svg fill="none" viewBox="0 0 14 14" id="calendar" xmlns="http://www.w3.org/2000/svg"><path d="M11.666 1.75h-.583V.583H9.916V1.75H4.083V.583H2.916V1.75h-.583a1.17 1.17 0 00-1.167 1.167v9.333a1.17 1.17 0 001.167 1.167h9.334a1.17 1.17 0 001.166-1.167V2.917a1.17 1.17 0 00-1.167-1.167zm0 10.5H2.333V4.667h9.333v7.583z" fill="currentColor"/></svg><svg fill="none" viewBox="0 0 30 30" id="fb" xmlns="http://www.w3.org/2000/svg"><path d="M15 0C6.75 0 0 6.762 0 15.09 0 22.62 5.49 28.87 12.66 30V19.458H8.85V15.09h3.81v-3.328c0-3.78 2.235-5.858 5.67-5.858 1.635 0 3.345.286 3.345.286v3.72h-1.89c-1.86 0-2.445 1.16-2.445 2.349v2.831h4.17l-.675 4.368H17.34V30a14.985 14.985 0 009.075-5.105A15.097 15.097 0 0030 15.09C30 6.762 23.25 0 15 0z" fill="currentColor"/></svg><svg fill="none" viewBox="0 0 30 30" id="ig" xmlns="http://www.w3.org/2000/svg"><path d="M12.129 15a2.871 2.871 0 105.742 0 2.871 2.871 0 00-5.742 0z" fill="currentColor"/><path d="M8.286 9.92c.138-.374.358-.712.644-.99.278-.286.616-.507.99-.645.304-.118.76-.258 1.6-.296.908-.041 1.18-.05 3.48-.05s2.573.008 3.48.05c.84.038 1.297.178 1.6.296.374.138.713.359.99.645.286.278.506.616.645.99.118.303.258.76.296 1.6.042.908.05 1.18.05 3.48s-.008 2.572-.05 3.48c-.038.84-.178 1.296-.296 1.6a2.67 2.67 0 01-.645.99 2.667 2.667 0 01-.99.645c-.303.118-.76.258-1.6.296-.907.042-1.18.05-3.48.05s-2.572-.008-3.48-.05c-.84-.038-1.296-.178-1.6-.296a2.852 2.852 0 01-1.634-1.635c-.118-.304-.259-.76-.297-1.6-.041-.908-.05-1.18-.05-3.48s.009-2.572.05-3.48c.038-.84.178-1.296.297-1.6zM15 19.423a4.423 4.423 0 100-8.846 4.423 4.423 0 000 8.846zm-4.598-7.987a1.034 1.034 0 100-2.068 1.034 1.034 0 000 2.068z" fill="currentColor"/><path d="M15 0c8.283 0 15 6.717 15 15 0 8.283-6.717 15-15 15-8.283 0-15-6.717-15-15C0 6.717 6.717 0 15 0zM6.439 18.551c.041.917.187 1.543.4 2.09a4.404 4.404 0 002.52 2.52c.547.213 1.173.358 2.09.4.918.042 1.212.052 3.55.052 2.34 0 2.633-.01 3.552-.052.917-.042 1.543-.187 2.09-.4a4.22 4.22 0 001.526-.994c.438-.43.777-.95.994-1.525.213-.548.358-1.174.4-2.09.042-.92.052-1.213.052-3.552 0-2.34-.01-2.633-.052-3.551-.041-.917-.187-1.543-.4-2.09a4.22 4.22 0 00-.994-1.526 4.218 4.218 0 00-1.525-.994c-.548-.213-1.174-.358-2.09-.4-.92-.042-1.213-.052-3.552-.052-2.34 0-2.633.01-3.551.052-.917.042-1.543.187-2.09.4a4.222 4.222 0 00-1.527.994 4.22 4.22 0 00-.993 1.525c-.213.548-.359 1.174-.4 2.09-.042.92-.052 1.213-.052 3.552 0 2.34.01 2.633.052 3.551z" fill="currentColor"/></svg><svg fill="none" viewBox="0 0 20 18" id="menuBtn" xmlns="http://www.w3.org/2000/svg"><path fill="currentColor" d="M0 0h20v2H0zM0 8h20v2H0zM0 16h10v2H0z"/></svg><svg fill="none" viewBox="0 0 16 16" id="phone" xmlns="http://www.w3.org/2000/svg"><path d="M14.675 10.817a9.536 9.536 0 01-2.942-.467.814.814 0 00-.841.2l-1.309 1.642C7.225 11.067 5.017 8.942 3.842 6.5l1.625-1.383a.85.85 0 00.2-.85A9.294 9.294 0 015.2 1.325.832.832 0 004.375.5H1.492C1.042.5.5.7.5 1.325.5 9.067 6.942 15.5 14.675 15.5c.592 0 .825-.525.825-.983v-2.875a.832.832 0 00-.825-.825z" fill="currentColor"/></svg><svg version="1.0" viewBox="0 0 128 128" id="question" xmlns="http://www.w3.org/2000/svg"><path d="M50.1 1.6C25.9 6.9 6.7 26.4 1.5 50.8c-7.2 34.6 14.8 68.4 49.3 75.7 34.6 7.2 68.4-14.8 75.7-49.3 1.9-9.3 1.9-17.1 0-26.4C119.2 16.1 84.8-6 50.1 1.6zm28.4 22.9c9.9 4.3 16.1 12.1 17.2 21.4 1.1 9.2-2.7 15.5-13.3 22.5-3 1.9-5.7 4.7-7 7.1l-2 4-9.1.3c-10.6.3-11.9-.5-10.8-6.7 1-6 4.2-10.1 12.3-15.4 4.2-2.8 7.7-5.9 8.2-7.3 2.6-6.9-7.9-12.1-15.9-8-1.5.8-4 3.1-5.5 5-1.5 2-3.4 3.6-4.3 3.6-1.6 0-12.1-7.3-13.5-9.4-.9-1.4.8-4.2 5.9-9.7 9.7-10.3 24.5-13.2 37.8-7.4zm-5.1 62.1c1.2 1.1 1.6 3.6 1.6 9.4 0 5.8-.4 8.3-1.6 9.4-1.1 1.2-3.6 1.6-9.4 1.6-10.3 0-11-.7-11-11 0-5.8.4-8.3 1.6-9.4 1.1-1.2 3.6-1.6 9.4-1.6 5.8 0 8.3.4 9.4 1.6z" fill="currentColor"/></svg><svg fill="none" viewBox="0 0 20 20" id="search" xmlns="http://www.w3.org/2000/svg"><path d="M19.929 18.25l-4.046-3.564a9.222 9.222 0 001.834-5.56c0-2.44-.925-4.728-2.596-6.452C13.45.949 11.223 0 8.858 0 6.493 0 4.267.952 2.595 2.674.921 4.395 0 6.686 0 9.125c0 2.437.924 4.73 2.595 6.452 1.672 1.725 3.895 2.674 6.263 2.674a8.621 8.621 0 005.395-1.886l4.046 3.562a.24.24 0 00.171.073.237.237 0 00.172-.073l1.287-1.323a.252.252 0 00.053-.272.25.25 0 00-.053-.081zm-6.394-4.306c-1.252 1.286-2.911 1.995-4.677 1.995-1.765 0-3.425-.709-4.677-1.995a6.882 6.882 0 01-1.937-4.819c0-1.819.688-3.531 1.937-4.818 1.252-1.286 2.912-1.995 4.677-1.995 1.766 0 3.428.705 4.677 1.995a6.882 6.882 0 011.937 4.818 6.877 6.877 0 01-1.937 4.819z" fill="currentColor"/></svg><svg fill="none" viewBox="0 0 18 18" id="search-close-form" xmlns="http://www.w3.org/2000/svg"><circle cx="9" cy="9" r="9" fill="currentColor"/><path fill="#fff" d="M5.586 4.95l7.637 7.636-.637.637L4.95 5.586z"/><path fill="#fff" d="M5.032 12.587L12.67 4.95l.636.637-7.636 7.637z"/></svg><svg fill="none" viewBox="0 0 30 30" id="vk" xmlns="http://www.w3.org/2000/svg"><path d="M15 0C6.716 0 0 6.716 0 15c0 8.284 6.716 15 15 15 8.284 0 15-6.716 15-15 0-8.284-6.716-15-15-15zm7.609 16.622c.699.683 1.439 1.326 2.066 2.08.278.333.54.677.74 1.065.285.553.027 1.159-.467 1.192l-3.073-.001c-.794.066-1.426-.255-1.958-.797-.425-.433-.82-.894-1.229-1.342a2.871 2.871 0 00-.553-.492c-.42-.272-.783-.189-1.023.249-.245.445-.3.939-.324 1.434-.033.725-.252.914-.979.948-1.554.073-3.028-.163-4.398-.946-1.208-.69-2.144-1.666-2.959-2.77-1.587-2.152-2.803-4.514-3.895-6.944-.246-.547-.066-.84.538-.85a85.522 85.522 0 013.009-.002c.408.007.678.24.835.625.542 1.334 1.206 2.603 2.039 3.78.222.313.448.625.77.846.357.245.628.164.796-.233.107-.253.154-.523.177-.794.08-.927.09-1.854-.049-2.777-.086-.578-.41-.951-.987-1.06-.293-.056-.25-.165-.108-.332.248-.29.48-.47.944-.47h3.472c.547.107.67.353.744.904l.003 3.859c-.006.213.107.845.49.985.307.101.51-.145.693-.34.833-.883 1.426-1.926 1.957-3.005.235-.476.437-.969.634-1.462.146-.365.373-.545.785-.539l3.343.004c.099 0 .199.001.296.018.564.097.718.339.544.889-.275.863-.808 1.583-1.329 2.304-.558.772-1.154 1.517-1.707 2.293-.508.709-.468 1.066.163 1.681z" fill="currentColor"/></svg></svg>