<svg version="1.0" xmlns="http://www.w3.org/2000/svg"
     width="128.000000pt" height="128.000000pt" viewBox="0 0 128.000000 128.000000"
     preserveAspectRatio="xMidYMid meet">

    <g transform="translate(0.000000,128.000000) scale(0.100000,-0.100000)"
       fill="currentColor" stroke="none">
        <path d="M501 1264 c-242 -53 -434 -248 -486 -492 -72 -346 148 -684 493 -757
346 -72 684 148 757 493 19 93 19 171 0 264 -73 347 -417 568 -764 492z m284
-229 c99 -43 161 -121 172 -214 11 -92 -27 -155 -133 -225 -30 -19 -57 -47
-70 -71 l-20 -40 -91 -3 c-106 -3 -119 5 -108 67 10 60 42 101 123 154 42 28
77 59 82 73 26 69 -79 121 -159 80 -15 -8 -40 -31 -55 -50 -15 -20 -34 -36
-43 -36 -16 0 -121 73 -135 94 -9 14 8 42 59 97 97 103 245 132 378 74z m-51
-621 c12 -11 16 -36 16 -94 0 -58 -4 -83 -16 -94 -11 -12 -36 -16 -94 -16
-103 0 -110 7 -110 110 0 58 4 83 16 94 11 12 36 16 94 16 58 0 83 -4 94 -16z"/>
    </g>
</svg>
